<svg xmlns="http://www.w3.org/2000/svg" width="300" height="300" viewBox="0 0 79.374999 79.375002">
  <defs>
    <clipPath clipPathUnits="userSpaceOnUse">
      <path d="M 0,595.28 H 841.89 V 0 H 0 Z"></path>
    </clipPath>
  </defs>
  <g>
    <g transform="scale(0.30000001)">
      <path fill="#FFFFFF" d="M 0,0 H 264.58333 V 264.58333 H 0 Z"></path>
    </g>
    <g clip-path="url(#clipPath1131)" transform="matrix(0.21472537,0,0,-0.21472537,-50.676594,105.78462)">
      <g transform="translate(374.377,366.8977)">
        <path fill="#101112" d="m -0.00977596,0 c 0,-12.672 -10.27300004,-22.945 -22.94500004,-22.945 -12.673,0 -22.945,10.273 -22.945,22.945 0,12.672 10.272,22.945 22.945,22.945 12.672,0 22.94500004,-10.273 22.94500004,-22.945"></path>
      </g>
      <g transform="translate(443.7871,366.8977)">
        <path fill="#101112" d="m -0.00977596,0 c 0,-12.672 -10.27200004,-22.945 -22.94500004,-22.945 -12.672,0 -22.945,10.273 -22.945,22.945 0,12.672 10.273,22.945 22.945,22.945 12.673,0 22.94500004,-10.273 22.94500004,-22.945"></path>
      </g>
      <g transform="translate(513.1982,366.8977)">
        <path fill="#101112" d="m -0.00977596,0 c 0,-12.672 -10.27300004,-22.945 -22.94500004,-22.945 -12.672,0 -22.946,10.273 -22.946,22.945 0,12.672 10.274,22.945 22.946,22.945 12.672,0 22.94500004,-10.273 22.94500004,-22.945"></path>
      </g>
      <g transform="translate(420.8423,274.5417)">
        <path fill="#101112" d="M -0.00977596,0 C -12.681776,0 -22.954776,10.272 -22.954776,22.945 c 0,12.672 10.273,22.945 22.94500004,22.945 C 12.662224,45.89 22.935224,35.617 22.935224,22.945 22.935224,10.272 12.662224,0 -0.00977596,0"></path>
      </g>
      <g transform="translate(420.8423,205.1316)">
        <path fill="#101112" d="M -0.00977596,0 C -12.681776,0 -22.954776,10.272 -22.954776,22.944 c 0,12.673 10.273,22.946 22.94500004,22.946 C 12.662224,45.89 22.935224,35.617 22.935224,22.944 22.935224,10.272 12.662224,0 -0.00977596,0"></path>
      </g>
    </g>
  </g>
</svg>
